PathFileType	4	(X/Y/Z)	RBDS026static.trc
DataRate	CameraRate	NumFrames	NumMarkers	Units	OrigDataRate	OrigDataStartFrame	OrigNumFrames
150.000000	150.000000	4	48	mm	150.000000	37	150
Frame#	Time	L.Ankle			L.Ankle.Medial			L.ASIS			L.GTR			L.Heel.Bottom			L.Heel.Lateral			L.Heel.Top			L.HF			L.Iliac.Crest			L.Knee			L.Knee.Medial			L.MT1			L.MT2			L.MT5			L.PSIS			L.Shank.Bottom.Lateral			L.Shank.Bottom.Medial			L.Shank.Top.Lateral			L.Shank.Top.Medial			L.Thigh.Bottom.Lateral			L.Thigh.Bottom.Medial			L.Thigh.Top.Lateral			L.Thigh.Top.Medial			L.TT			R.Ankle			R.Ankle.Medial			R.ASIS			R.GTR			R.Heel.Bottom			R.Heel.Lateral			R.Heel.Top			R.HF			R.Iliac.Crest			R.Knee			R.Knee.Medial			R.MT1			R.MT2			R.MT5			R.PSIS			R.Shank.Bottom.Lateral			R.Shank.Bottom.Medial			R.Shank.Top.Lateral			R.Shank.Top.Medial			R.Thigh.Bottom.Lateral			R.Thigh.Bottom.Medial			R.Thigh.Top.Lateral			R.Thigh.Top.Medial			R.TT			
		X1	Y1	Z1	X2	Y2	Z2	X3	Y3	Z3	X4	Y4	Z4	X5	Y5	Z5	X6	Y6	Z6	X7	Y7	Z7	X8	Y8	Z8	X9	Y9	Z9	X10	Y10	Z10	X11	Y11	Z11	X12	Y12	Z12	X13	Y13	Z13	X14	Y14	Z14	X15	Y15	Z15	X16	Y16	Z16	X17	Y17	Z17	X18	Y18	Z18	X19	Y19	Z19	X20	Y20	Z20	X21	Y21	Z21	X22	Y22	Z22	X23	Y23	Z23	X24	Y24	Z24	X25	Y25	Z25	X26	Y26	Z26	X27	Y27	Z27	X28	Y28	Z28	X29	Y29	Z29	X30	Y30	Z30	X31	Y31	Z31	X32	Y32	Z32	X33	Y33	Z33	X34	Y34	Z34	X35	Y35	Z35	X36	Y36	Z36	X37	Y37	Z37	X38	Y38	Z38	X39	Y39	Z39	X40	Y40	Z40	X41	Y41	Z41	X42	Y42	Z42	X43	Y43	Z43	X44	Y44	Z44	X45	Y45	Z45	X46	Y46	Z46	X47	Y47	Z47	X48	Y48	Z48	

38	0.2466666666666667	708.15869140625	106.8071365356445	1038.215698242188	735.5882568359375	119.1401062011719	1122.308959960938	877.0037841796875	1063.947998046875	1114.942749023438	808.2861328125	965.8899536132813	1051.6796875	640.030517578125	41.16057586669922	1080.991821289063	675.7738647460938	62.70385360717773	1035.862548828125	649.3746337890625	88.64518737792969	1082.270751953125	786.1210327148438	488.8990478515625	1026.281982421875	794.0794067382813	1138.676147460938	1071.973266601563	803.7589111328125	545.4321899414063	1036.1162109375	790.792724609375	528.3020629882813	1157.90869140625	864.8245239257813	57.96461868286133	1122.43359375	868.6779174804688	68.3369140625	1077.919677734375	828.584716796875	50.48238754272461	1012.090393066406	702.0174560546875	1105.848388671875	1185.75244140625	730.9978637695313	186.2486724853516	1029.249267578125	685.794921875	194.7729187011719	1051.862915039063	741.3250122070313	264.4300537109375	1011.361694335938	694.02734375	277.13330078125	1033.463134765625	787.3851318359375	666.2412109375	1029.113037109375	726.144775390625	665.0466918945313	1068.84326171875	779.9396362304688	776.2598266601563	1023.59326171875	724.35546875	774.1431884765625	1066.151489257813	841.4354248046875	458.1229553222656	1071.834350585938	709.8255615234375	104.2232894897461	1418.59814453125	735.2870483398438	122.0481033325195	1332.49951171875	874.8980712890625	1068.981689453125	1353.406494140625	804.0750122070313	961.7112426757813	1415.729370117188	639.356689453125	41.93354797363281	1371.222045898438	671.2804565429688	62.36042404174805	1416.605224609375	647.9661254882813	87.93561553955078	1370.743896484375	779.3344116210938	485.2088623046875	1442.097534179688	804.2529907226563	1131.53125	1394.5771484375	797.1453857421875	538.1061401367188	1433.416748046875	801.3825073242188	526.155029296875	1312.2685546875	863.7468872070313	60.55278778076172	1332.92236328125	870.4978637695313	71.23062133789063	1379.3662109375	834.908447265625	50.49392318725586	1444.172241210938	704.1292724609375	1106.048461914063	1286.315185546875	725.2744750976563	178.85302734375	1429.317016601563	678.4074096679688	185.6540069580078	1400.251220703125	724.5554809570313	258.1991577148438	1447.293212890625	679.15771484375	264.1019287109375	1418.177490234375	800.9857177734375	647.4067993164063	1441.169799804688	735.8292846679688	647.343505859375	1409.8583984375	799.4542236328125	757.9946899414063	1442.749267578125	736.9404296875	757.2791137695313	1413.849365234375	840.34326171875	458.6404418945313	1392.50634765625	
39	0.2533333333333334	708.158203125	106.8064498901367	1038.217041015625	735.5858764648438	119.1390075683594	1122.308471679688	876.9446411132813	1063.950927734375	1114.742919921875	808.2693481445313	965.8955078125	1051.667724609375	640.0316162109375	41.16035461425781	1080.998046875	675.77197265625	62.71059417724609	1035.863525390625	649.3779296875	88.65826416015625	1082.259033203125	786.1256103515625	488.9021301269531	1026.278442382813	794.0610961914063	1138.689453125	1071.9775390625	803.7691650390625	545.4224853515625	1036.109985351563	790.7794189453125	528.315185546875	1157.910278320313	864.8229370117188	57.96914672851563	1122.44091796875	868.6755981445313	68.34577941894531	1077.923095703125	828.58203125	50.48060989379883	1012.090515136719	701.9960327148438	1105.848388671875	1185.751220703125	731.000732421875	186.2531433105469	1029.25	685.7857055664063	194.7940368652344	1051.861572265625	741.331298828125	264.4353942871094	1011.362487792969	694.0321655273438	277.1421508789063	1033.459228515625	787.3746948242188	666.2382202148438	1029.110107421875	726.1231079101563	665.052490234375	1068.84423828125	779.9359130859375	776.255615234375	1023.584777832031	724.3427734375	774.149658203125	1066.159790039063	841.4336547851563	458.13330078125	1071.8251953125	710.0172119140625	104.0392684936523	1418.641723632813	735.28125	122.0378189086914	1332.487548828125	874.8829345703125	1068.986083984375	1353.394165039063	804.067138671875	961.7096557617188	1415.7265625	639.353271484375	41.94428634643555	1371.220703125	671.2811279296875	62.35577774047852	1416.61328125	647.9598388671875	87.95023345947266	1370.731201171875	779.3389282226563	485.2104797363281	1442.09130859375	804.2468872070313	1131.538330078125	1394.577270507813	797.1497802734375	538.1209106445313	1433.396240234375	801.3851318359375	526.1558837890625	1312.248168945313	863.7515258789063	60.54945755004883	1332.926391601563	870.5003662109375	71.22511291503906	1379.362670898438	834.9027099609375	50.49395751953125	1444.163452148438	704.1163330078125	1106.044555664063	1286.317138671875	725.2711791992188	178.8580627441406	1429.3115234375	678.4052734375	185.6651458740234	1400.2392578125	724.553955078125	258.2074890136719	1447.293334960938	679.1615600585938	264.1044311523438	1418.171630859375	800.9796752929688	647.4130249023438	1441.157592773438	735.8409423828125	647.349853515625	1409.84130859375	799.45263671875	757.999755859375	1442.739135742188	736.945068359375	757.2860107421875	1413.829833984375	840.341796875	458.6444091796875	1392.501098632813	
40	0.26	708.1535034179688	106.8212356567383	1038.209838867188	735.58642578125	119.1471328735352	1122.30419921875	876.9730834960938	1063.978393554688	1114.919189453125	808.2447509765625	965.8936157226563	1051.666015625	640.0250244140625	41.17212677001953	1080.998901367188	675.7770385742188	62.71596145629883	1035.864135742188	649.380859375	88.65059661865234	1082.267456054688	786.117431640625	488.9035034179688	1026.273315429688	794.05126953125	1138.71142578125	1071.987182617188	803.7628784179688	545.4375610351563	1036.10986328125	790.79736328125	528.31640625	1157.888305664063	864.8256225585938	57.97893905639648	1122.437744140625	868.661865234375	68.34770965576172	1077.914794921875	828.5806884765625	50.489501953125	1012.084167480469	701.9813842773438	1105.845092773438	1185.759887695313	730.9995727539063	186.2577819824219	1029.2490234375	685.7863159179688	194.7990570068359	1051.855834960938	741.3145751953125	264.4455871582031	1011.36083984375	694.0335083007813	277.1454467773438	1033.460083007813	787.370849609375	666.2493286132813	1029.105834960938	726.1275634765625	665.0504760742188	1068.851684570313	779.9188842773438	776.267333984375	1023.594543457031	724.3361206054688	774.1433715820313	1066.166259765625	841.4303588867188	458.1376647949219	1071.821533203125	709.8189697265625	104.2276840209961	1418.60009765625	735.3093872070313	122.1310195922852	1332.5546875	874.8756713867188	1068.987915039063	1353.383178710938	804.0662231445313	961.7128295898438	1415.720825195313	639.3516235351563	41.94272613525391	1371.220581054688	671.2785034179688	62.36123275756836	1416.6123046875	647.9610595703125	87.95127868652344	1370.737426757813	779.3377685546875	485.2212524414063	1442.0771484375	804.2499389648438	1131.548461914063	1394.574340820313	797.1474609375	538.123291015625	1433.385620117188	801.3724365234375	526.1676635742188	1312.238525390625	863.7445068359375	60.54768371582031	1332.92333984375	870.4921875	71.23163604736328	1379.367431640625	834.8994750976563	50.50341796875	1444.160888671875	704.1070556640625	1106.047241210938	1286.323608398438	725.2809448242188	178.8640594482422	1429.312377929688	678.4083251953125	185.6625518798828	1400.244750976563	724.554931640625	258.21826171875	1447.2802734375	679.1580200195313	264.1031494140625	1418.1650390625	800.9801025390625	647.428466796875	1441.14306640625	735.83837890625	647.3528442382813	1409.817626953125	799.4564819335938	758.002197265625	1442.7333984375	736.9495239257813	757.28857421875	1413.808227539063	840.3323974609375	458.6539611816406	1392.489624023438	
41	0.2666666666666667	708.1357421875	106.8299713134766	1038.213500976563	735.5906982421875	119.1588821411133	1122.302490234375	876.957763671875	1063.994018554688	1114.921997070313	808.2183227539063	965.91357421875	1051.655639648438	640.0291748046875	41.17122268676758	1080.9931640625	675.7591552734375	62.72846221923828	1035.864501953125	649.3772583007813	88.66396331787109	1082.269775390625	786.1180419921875	488.9183959960938	1026.27392578125	794.0335693359375	1138.732543945313	1071.98876953125	803.7615966796875	545.4432983398438	1036.104248046875	790.80908203125	528.3253173828125	1157.879516601563	864.812255859375	57.98382186889648	1122.441528320313	868.6712646484375	68.35272216796875	1077.921020507813	828.581787109375	50.49831771850586	1012.087158203125	701.9668579101563	1105.845825195313	1185.7548828125	730.9902954101563	186.2547912597656	1029.2470703125	685.7869262695313	194.7996978759766	1051.864868164063	741.3101806640625	264.4467468261719	1011.363098144531	694.0272216796875	277.1487121582031	1033.458374023438	787.37060546875	666.277587890625	1029.105224609375	726.1138305664063	665.068603515625	1068.859008789063	779.9088134765625	776.2676391601563	1023.599548339844	724.3345947265625	774.1510620117188	1066.175048828125	841.4320068359375	458.1433715820313	1071.824584960938	709.8217163085938	104.2276306152344	1418.598754882813	735.2764282226563	122.0520782470703	1332.494995117188	874.862060546875	1068.993896484375	1353.370483398438	804.0521850585938	961.7200317382813	1415.711547851563	639.351806640625	41.95643615722656	1371.216918945313	671.2789916992188	62.36489868164063	1416.61328125	647.9613647460938	87.95491027832031	1370.73828125	779.3334350585938	485.233154296875	1442.070556640625	804.2601318359375	1131.547485351563	1394.56982421875	797.1408081054688	538.135986328125	1433.373779296875	801.3595581054688	526.1878051757813	1312.2294921875	863.7417602539063	60.55365753173828	1332.925903320313	870.4873657226563	71.24301147460938	1379.371459960938	834.9003295898438	50.51237487792969	1444.162841796875	704.0916137695313	1106.042114257813	1286.324462890625	725.2754516601563	178.8721771240234	1429.3095703125	678.4046020507813	185.6600189208984	1400.244995117188	724.548095703125	258.2261047363281	1447.287719726563	679.15771484375	264.1087951660156	1418.157836914063	800.9804077148438	647.4227905273438	1441.140014648438	735.8327026367188	647.3648681640625	1409.812377929688	799.4481811523438	758.0028076171875	1442.723876953125	736.9437255859375	757.294677734375	1413.786376953125	840.3366088867188	458.6630554199219	1392.4814453125	
